<svg xmlns="http://www.w3.org/2000/svg" version="1.1" xmlns:xlink="http://www.w3.org/1999/xlink" xmlns:svgjs="http://svgjs.dev/svgjs" width="1500" height="1000" preserveAspectRatio="none" viewBox="0 0 1500 1000"><g mask="url(&quot;#SvgjsMask5390&quot;)" fill="none"><rect width="1500" height="1000" x="0" y="0" fill="rgba(255, 255, 255, 0.04)"></rect><use xlink:href="#SvgjsG5406" transform="translate(0, 0)" fill="#0f457b"></use><use xlink:href="#SvgjsG5406" transform="translate(0, 300)" fill="#0f457b"></use><use xlink:href="#SvgjsG5406" transform="translate(0, 600)" fill="#0f457b"></use><use xlink:href="#SvgjsG5406" transform="translate(0, 900)" fill="#0f457b"></use><use xlink:href="#SvgjsG5406" transform="translate(300, 0)" fill="#0f457b"></use><use xlink:href="#SvgjsG5406" transform="translate(300, 300)" fill="#0f457b"></use><use xlink:href="#SvgjsG5406" transform="translate(300, 600)" fill="#0f457b"></use><use xlink:href="#SvgjsG5406" transform="translate(300, 900)" fill="#0f457b"></use><use xlink:href="#SvgjsG5406" transform="translate(600, 0)" fill="#0f457b"></use><use xlink:href="#SvgjsG5406" transform="translate(600, 300)" fill="#0f457b"></use><use xlink:href="#SvgjsG5406" transform="translate(600, 600)" fill="#0f457b"></use><use xlink:href="#SvgjsG5406" transform="translate(600, 900)" fill="#0f457b"></use><use xlink:href="#SvgjsG5406" transform="translate(900, 0)" fill="#0f457b"></use><use xlink:href="#SvgjsG5406" transform="translate(900, 300)" fill="#0f457b"></use><use xlink:href="#SvgjsG5406" transform="translate(900, 600)" fill="#0f457b"></use><use xlink:href="#SvgjsG5406" transform="translate(900, 900)" fill="#0f457b"></use><use xlink:href="#SvgjsG5406" transform="translate(1200, 0)" fill="#0f457b"></use><use xlink:href="#SvgjsG5406" transform="translate(1200, 300)" fill="#0f457b"></use><use xlink:href="#SvgjsG5406" transform="translate(1200, 600)" fill="#0f457b"></use><use xlink:href="#SvgjsG5406" transform="translate(1200, 900)" fill="#0f457b"></use></g><defs><mask id="SvgjsMask5390"><rect width="1500" height="1000" fill="#ffffff"></rect></mask><g id="SvgjsG5401"><path d="M-0.27 11.17l13.18 4.8L16.54 5.97 3.37 1.18l-3.64 9.99z m14.86-4.85L8.86 8.99c-0.59 0.28-1.35-0.01-1.63-0.61l-2.65-5.7 10 3.64z m-10.86-3.22l2.16 4.66-4.67 2.18 2.5-6.84z m-2.12 7.72l4.67-2.17 0.09 0.19c0.53 1.06 1.81 1.53 2.87 1.04l0.2-0.09 2.2 4.68-10.03-3.65z m10.91 3.23L10.34 9.39 15 7.21 12.51 14.05z" fill-rule="evenodd"></path></g><g id="SvgjsG5393"><path d="M3.17 5.93c0.27 0.1 0.59-0.04 0.69-0.31 0.1-0.28-0.05-0.59-0.33-0.69-0.27-0.1-0.59 0.04-0.69 0.32-0.1 0.27 0.05 0.59 0.33 0.68M0.33 5.74a0.06 0.06 0 0 1 0-0.04c0.01-0.03 0.04-0.04 0.07-0.04l1.6 0.59c0.08 0.03 0.16-0.01 0.19-0.09 0.02-0.06 0.01-0.11-0.04-0.17L0.96 4.78a0.1 0.1 0 0 1-0.02-0.1c0.01-0.02 0.02-0.04 0.05-0.06 0 0 5.03-1.98 12.26 4.35l2.73-0.29c0.03 0 0.06 0 0.08 0.01 0.1 0.04 0.15 0.15 0.11 0.25a0.21 0.21 0 0 1-0.06 0.08l-1.98 1.2 0.75 2.19c0 0.04 0 0.07-0.01 0.11-0.03 0.1-0.15 0.15-0.25 0.11-0.02-0.01-0.05-0.03-0.06-0.05l-1.9-1.97S3.44 10.88 0.33 5.74" fill-rule="evenodd"></path></g><g id="SvgjsG5400"><path d="M4.53 11.8L2.64 11.11l1.97-5.4 1.89 0.69-1.97 5.4z m6.55-3.73l1.89 0.69-1.96 5.39L9.12 13.46l1.96-5.39z m-3.34-1.22L9.84 7.62l-1.96 5.39L5.77 12.25l1.97-5.4z m-6.92 3.59L-0.45 11.46l13.66 4.95-0.28-1.56-0.68-0.25 1.96-5.39 1.34 0.48L16.23 7.81 15.22 7.44 10.28 3.48l-6.44-0.18-1.04-0.38-0.68 1.88 1.25 0.46-1.96 5.39-0.59-0.21z" fill-rule="evenodd"></path></g><g id="SvgjsG5394"><path d="M-0.49 12.68l13.66 4.98 0.52-1.42L1.44 11.78 3.61 5.83l14.26-1.08L18.4 3.27 0.72 4.61l-0.54 1.47 1.78-0.13z"></path><path d="M12.59 8.66l-0.27 0.76-1.25-0.45 0.08 2.09 1.87 0.68-0.28 0.75L11.17 11.92l0.1 2.44-0.92-0.33-0.09-2.44L7.45 10.57l-1.63 1.81-0.92-0.34 1.64-1.8L4.98 9.67l0.27-0.76 1.87 0.68 1.4-1.55-1.25-0.45 0.28-0.76 5.04 1.83z m-2.36 2.06L10.15 8.64l-0.71-0.26-1.4 1.54 2.18 0.8z"></path></g><g id="SvgjsG5392"><path d="M9.95 6.91c-1.48-0.54-3.13 0.23-3.67 1.71s0.23 3.13 1.71 3.67 3.13-0.23 3.67-1.71-0.23-3.13-1.71-3.67z"></path><path d="M14.37 5.89l0.06-2.01-5.97-2.17L7.23 3.29 1.91 1.35l-3.65 10.03 15.03 5.47 3.65-10.02L14.37 5.89zM4.43 5.36L2.36 4.61l0.4-1.1L4.83 4.26l-0.4 1.1z m3.11 8.18c-2.17-0.79-3.3-3.2-2.51-5.37s3.2-3.3 5.37-2.51 3.3 3.2 2.51 5.38-3.2 3.3-5.37 2.5z"></path></g><g id="SvgjsG5391"><path d="M5.17 14.94C1.17 13.48-0.89 9.05 0.56 5.05 2.02 1.05 6.45-1.02 10.45 0.43S16.52 6.33 15.06 10.32c-1.46 4-5.9 6.07-9.89 4.62z m0.65-1.8c3.01 1.09 6.35-0.46 7.45-3.47 1.09-3.01-0.47-6.35-3.47-7.44-3.01-1.1-6.35 0.47-7.44 3.47-1.1 3.01 0.46 6.35 3.46 7.44z"></path><path d="M7.5 8.66a0.57 0.57 0 0 1-0.51-0.23 0.58 0.58 0 0 1-0.1-0.47L8.41 3.75a0.58 0.58 0 0 1 1.09 0.39l-1.19 3.27 3.28-0.3a0.58 0.58 0 0 1 0.63 0.53c0.03 0.32-0.21 0.6-0.52 0.63l-4.2 0.39z"></path></g><g id="SvgjsG5399"><path d="M1.91 10.24L3.02 7.18c0.97-2.66 4.12-4.08 6.93-3.06 2.84 1.03 4.33 4.08 3.34 6.8l-1.11 3.06 1.27 0.46L14.56 11.38C15.82 7.95 13.95 4.13 10.42 2.84 6.91 1.56 2.98 3.34 1.75 6.72l-1.11 3.06 1.27 0.46z"></path><path d="M3.32 13.43l-1.67-0.6L3.4 8.02l1.67 0.61c0.05 2.54-1.75 4.8-1.74 4.8m7.43-2.73L12.43 11.31 10.69 16.11l-1.68-0.6c-0.05-2.54 1.75-4.8 1.75-4.81"></path></g><g id="SvgjsG5405"><path d="M15.55 10.15l-0.77-1.66L7.69 5.91C7.48 4.62 6.6 3.49 5.29 3.01 3.35 2.3 1.19 3.32 0.48 5.28c-0.71 1.97 0.29 4.13 2.23 4.84 1.3 0.47 2.7 0.17 3.69-0.68l1.43 0.52 1.54-0.72 0.55 1.18 1.13-0.52 0.54 1.16 1.18-0.55 0.55 1.18 2.01-0.94c0.29-0.14 0.36-0.3 0.22-0.6zM2.12 6.93c-0.52-0.19-0.78-0.77-0.59-1.28 0.19-0.53 0.76-0.8 1.28-0.61 0.51 0.18 0.78 0.76 0.59 1.29-0.19 0.52-0.76 0.79-1.28 0.6z"></path></g><g id="SvgjsG5404"><path d="M13.54 15.48l0.01 0s-1.81-3.87-1.81-3.87a0.6 0.6 0 0 0-0.81-0.3L9.15 12.15c-0.69 0.32-1.18-0.37-2.07-1.85-0.59-0.98-1.21-2.24-1.67-3.57-0.32-0.93-0.56-1.88 0.17-2.22 0 0 1.79-0.83 1.79-0.83l0-0.01c0.32-0.15 0.43-0.52 0.29-0.81l0 0L5.8-1.13c-0.14-0.31-0.51-0.43-0.81-0.29L3.2-0.58C2.41-0.1 0.02 2.7 3.27 9.88c3.41 7.56 7.36 7.65 8.19 7.24 0 0 1.79-0.82 1.79-0.82l0-0.01c0.32-0.15 0.43-0.52 0.3-0.81z"></path></g><g id="SvgjsG5396"><path d="M12.43 5.94L10.62 5.28l1.67-0.05a0.32 0.32 0 0 0-0.02-0.65l-1.88 0.06 1.82-0.84a0.33 0.33 0 0 0 0.17-0.18 0.32 0.32 0 0 0-0.44-0.41l-2.56 1.19 0.98-2.65a0.32 0.32 0 0 0-0.2-0.41L10.16 1.33c-0.17-0.06-0.35 0.02-0.41 0.19l-0.98 2.66c-0.38-0.83-1.07-2.32-1.06-2.32a0.33 0.33 0 0 0-0.44-0.16 0.33 0.33 0 0 0-0.15 0.43l0.74 1.62-1.45-1.29a0.32 0.32 0 1 0-0.43 0.48l1.25 1.11L5.48 3.41a0.48 0.48 0 0 0-0.62 0.29l-3.53 9.69c-0.09 0.25 0.04 0.53 0.3 0.62l6.95 2.53c0.25 0.09 0.52-0.04 0.61-0.29l3.53-9.69c0.09-0.25-0.03-0.53-0.29-0.62z m-1.93 3.89L7.78 8.83l1.14-3.14 2.73 1-1.15 3.14z m-3.33-1.22l-2.71-0.98 1.15-3.14 2.7 0.98-1.14 3.14z m-2.93-0.37l2.71 0.98-1.83 5.03-2.71-0.99L4.24 8.24z m3.31 1.2l2.73 0.99-1.83 5.03L5.73 14.47 7.55 9.44z" fill-rule="evenodd"></path></g><g id="SvgjsG5398"><path d="M14.09 11.8l-0.26-1.44-2.37 0.41L9.63 8.59l2.8-0.49 1.55 1.84 1.13-0.94-1.01-1.2 1.91-0.33-0.3-1.71-1.91 0.34 0.54-1.47-1.38-0.5-0.83 2.26L9.33 6.89 10.3 4.21l2.38-0.42-0.26-1.44L10.88 2.62 11.54 0.8l-1.62-0.6-0.67 1.82L8.25 0.83l-1.12 0.94 1.54 1.85L7.7 6.29 5.87 4.11 6.69 1.85l-1.38-0.5-0.53 1.46-1.25-1.48-1.32 1.11 1.24 1.49-1.54 0.27 0.26 1.44 2.37-0.42L6.37 7.41 3.57 7.9l-1.55-1.84-1.13 0.94 1.01 1.2-1.91 0.33 0.3 1.71 1.91-0.34-0.54 1.47 1.38 0.5L3.87 9.61 6.67 9.11l-0.97 2.68-2.37 0.42 0.25 1.44 1.54-0.27-0.66 1.82 1.63 0.6 0.66-1.82 1 1.19 1.12-0.94-1.54-1.85 0.97-2.67L10.13 11.89l-0.82 2.26 1.38 0.51L11.22 13.19l1.25 1.48 1.33-1.11-1.25-1.49z"></path><path d="M-10.83 1.15l-2.73 7.5"></path><path d="M-12.43 5.56l1.92 2.29"></path><path d="M-10.83 1.15L-8.1-6.35"></path><path d="M-9.22-3.26l-1.92-2.29m1.92 2.29l2.94-0.52m-6.15 9.34l-2.94 0.52"></path><path d="M-10.83 1.15L-18.69 2.53"></path><path d="M-15.45 1.96l-1.02 2.81"></path><path d="M-10.83 1.15l7.86-1.39"></path><path d="M-6.2 0.33L-5.18-2.47m-1.02 2.8l1.92 2.29m-11.17-0.66l-1.92-2.28"></path><path d="M-10.83 1.15L-15.96-4.97"></path><path d="M-13.84-2.45l-2.95 0.52"></path><path d="M-10.83 1.15l5.13 6.11"></path><path d="M-7.81 4.75l2.94-0.52m-2.94 0.52l-1.02 2.8m-5.01-10L-12.82-5.26"></path></g><g id="SvgjsG5397"><path d="M10.41 0.36l0.67 0.25-0.93 2.55L9.48 2.92 10.41 0.36z m-4.57 12.42l0.67 0.24-0.93 2.56-0.67-0.25 0.93-2.55z m7.31-3.49L15.71 10.22l-0.25 0.67L12.91 9.96l0.24-0.67zM0.69 4.7l2.55 0.93-0.24 0.68L0.44 5.38 0.69 4.7zM2.8 1.92l0.54-0.47 1.78 2.05-0.54 0.47L2.8 1.92z m3.68-1.76l0.7-0.15 0.56 2.66-0.7 0.15-0.56-2.66zM8.63 13.15l0.7-0.12 0.48 2.68-0.71 0.12-0.47-2.68z m2.61-1.07l0.54-0.47 1.78 2.05-0.54 0.47-1.78-2.05zM2.16 13.34l-0.47-0.54 2.05-1.79 0.47 0.54L2.16 13.34zM0.22 9.42L0.07 8.72l2.66-0.57 0.15 0.7-2.66 0.57zM13.23 7.36l-0.13-0.71 2.68-0.47 0.12 0.71-2.67 0.47zM12.21 4.82l-0.47-0.54 2.06-1.78 0.47 0.54-2.06 1.78z m-8.34 1.64c0.83-2.29 3.37-3.48 5.66-2.64 2.29 0.83 3.47 3.37 2.64 5.66S8.8 12.95 6.51 12.12c-2.29-0.83-3.48-3.37-2.64-5.66"></path></g><g id="SvgjsG5402"><path d="M10.04 2.38C6.11 0.95 2.05 2.19 0.97 5.16c-0.53 1.45-0.24 3.04 0.65 4.46l-1.17 3.22 4.34-0.33c0.43 0.23 0.88 0.44 1.35 0.61 3.93 1.43 8 0.19 9.07-2.78 1.08-2.96-1.23-6.53-5.16-7.96zM4.68 7.79a1.07 1.07 0 1 1 0.73-2.01 1.07 1.07 0 0 1-0.73 2.01z m3 1.09a1.07 1.07 0 1 1 0.73-2.01 1.07 1.07 0 0 1-0.73 2.01z m2.95 1.07c-0.55-0.2-0.84-0.81-0.64-1.37s0.81-0.84 1.37-0.63 0.84 0.81 0.64 1.36a1.07 1.07 0 0 1-1.37 0.64z"></path></g><g id="SvgjsG5395"><path d="M5.72 14.26l7.57-3.53c2.35-1.1 3.23-3.62 2.24-5.76A4.27 4.27 0 0 0 9.85 2.91a4.26 4.26 0 0 0-5.66-2.08C2.05 1.83 1.1 4.34 2.2 6.68L5.72 14.26z"></path></g><g id="SvgjsG5403"><path d="M11.08 13.76c-3.45-1.25-5.22-5.06-3.97-8.51 0.72-1.98 2.28-3.4 4.13-4.02-3.79-1.22-7.89 0.76-9.26 4.53-1.4 3.86 0.58 8.12 4.44 9.53 2.5 0.91 5.17 0.39 7.13-1.13a6.6 6.6 0 0 1-2.47-0.4z"></path></g><g id="SvgjsG5406"><use xlink:href="#SvgjsG5391" transform="translate(0, 0)" fill="#0f457b"></use><use xlink:href="#SvgjsG5392" transform="translate(0, 30)" fill="#0f457b"></use><use xlink:href="#SvgjsG5393" transform="translate(0, 60)" fill="#0f457b"></use><use xlink:href="#SvgjsG5391" transform="translate(0, 90)" fill="#0f457b"></use><use xlink:href="#SvgjsG5394" transform="translate(0, 120)" fill="#0f457b"></use><use xlink:href="#SvgjsG5395" transform="translate(0, 150)" fill="#0f457b"></use><use xlink:href="#SvgjsG5396" transform="translate(0, 180)" fill="#0f457b"></use><use xlink:href="#SvgjsG5397" transform="translate(0, 210)" fill="#0f457b"></use><use xlink:href="#SvgjsG5398" transform="translate(0, 240)" fill="#0f457b"></use><use xlink:href="#SvgjsG5397" transform="translate(0, 270)" fill="#0f457b"></use><use xlink:href="#SvgjsG5399" transform="translate(30, 0)" fill="#0f457b"></use><use xlink:href="#SvgjsG5400" transform="translate(30, 30)" fill="#0f457b"></use><use xlink:href="#SvgjsG5401" transform="translate(30, 60)" fill="#0f457b"></use><use xlink:href="#SvgjsG5402" transform="translate(30, 90)" fill="#0f457b"></use><use xlink:href="#SvgjsG5403" transform="translate(30, 120)" fill="#0f457b"></use><use xlink:href="#SvgjsG5397" transform="translate(30, 150)" fill="#0f457b"></use><use xlink:href="#SvgjsG5397" transform="translate(30, 180)" fill="#0f457b"></use><use xlink:href="#SvgjsG5401" transform="translate(30, 210)" fill="#0f457b"></use><use xlink:href="#SvgjsG5399" transform="translate(30, 240)" fill="#0f457b"></use><use xlink:href="#SvgjsG5400" transform="translate(30, 270)" fill="#0f457b"></use><use xlink:href="#SvgjsG5395" transform="translate(60, 0)" fill="#0f457b"></use><use xlink:href="#SvgjsG5392" transform="translate(60, 30)" fill="#0f457b"></use><use xlink:href="#SvgjsG5395" transform="translate(60, 60)" fill="#0f457b"></use><use xlink:href="#SvgjsG5402" transform="translate(60, 90)" fill="#0f457b"></use><use xlink:href="#SvgjsG5395" transform="translate(60, 120)" fill="#0f457b"></use><use xlink:href="#SvgjsG5404" transform="translate(60, 150)" fill="#0f457b"></use><use xlink:href="#SvgjsG5400" transform="translate(60, 180)" fill="#0f457b"></use><use xlink:href="#SvgjsG5398" transform="translate(60, 210)" fill="#0f457b"></use><use xlink:href="#SvgjsG5393" transform="translate(60, 240)" fill="#0f457b"></use><use xlink:href="#SvgjsG5401" transform="translate(60, 270)" fill="#0f457b"></use><use xlink:href="#SvgjsG5403" transform="translate(90, 0)" fill="#0f457b"></use><use xlink:href="#SvgjsG5402" transform="translate(90, 30)" fill="#0f457b"></use><use xlink:href="#SvgjsG5402" transform="translate(90, 60)" fill="#0f457b"></use><use xlink:href="#SvgjsG5402" transform="translate(90, 90)" fill="#0f457b"></use><use xlink:href="#SvgjsG5398" transform="translate(90, 120)" fill="#0f457b"></use><use xlink:href="#SvgjsG5394" transform="translate(90, 150)" fill="#0f457b"></use><use xlink:href="#SvgjsG5403" transform="translate(90, 180)" fill="#0f457b"></use><use xlink:href="#SvgjsG5392" transform="translate(90, 210)" fill="#0f457b"></use><use xlink:href="#SvgjsG5405" transform="translate(90, 240)" fill="#0f457b"></use><use xlink:href="#SvgjsG5399" transform="translate(90, 270)" fill="#0f457b"></use><use xlink:href="#SvgjsG5391" transform="translate(120, 0)" fill="#0f457b"></use><use xlink:href="#SvgjsG5396" transform="translate(120, 30)" fill="#0f457b"></use><use xlink:href="#SvgjsG5396" transform="translate(120, 60)" fill="#0f457b"></use><use xlink:href="#SvgjsG5393" transform="translate(120, 90)" fill="#0f457b"></use><use xlink:href="#SvgjsG5403" transform="translate(120, 120)" fill="#0f457b"></use><use xlink:href="#SvgjsG5392" transform="translate(120, 150)" fill="#0f457b"></use><use xlink:href="#SvgjsG5402" transform="translate(120, 180)" fill="#0f457b"></use><use xlink:href="#SvgjsG5399" transform="translate(120, 210)" fill="#0f457b"></use><use xlink:href="#SvgjsG5396" transform="translate(120, 240)" fill="#0f457b"></use><use xlink:href="#SvgjsG5395" transform="translate(120, 270)" fill="#0f457b"></use><use xlink:href="#SvgjsG5400" transform="translate(150, 0)" fill="#0f457b"></use><use xlink:href="#SvgjsG5393" transform="translate(150, 30)" fill="#0f457b"></use><use xlink:href="#SvgjsG5398" transform="translate(150, 60)" fill="#0f457b"></use><use xlink:href="#SvgjsG5404" transform="translate(150, 90)" fill="#0f457b"></use><use xlink:href="#SvgjsG5396" transform="translate(150, 120)" fill="#0f457b"></use><use xlink:href="#SvgjsG5391" transform="translate(150, 150)" fill="#0f457b"></use><use xlink:href="#SvgjsG5400" transform="translate(150, 180)" fill="#0f457b"></use><use xlink:href="#SvgjsG5394" transform="translate(150, 210)" fill="#0f457b"></use><use xlink:href="#SvgjsG5402" transform="translate(150, 240)" fill="#0f457b"></use><use xlink:href="#SvgjsG5397" transform="translate(150, 270)" fill="#0f457b"></use><use xlink:href="#SvgjsG5400" transform="translate(180, 0)" fill="#0f457b"></use><use xlink:href="#SvgjsG5393" transform="translate(180, 30)" fill="#0f457b"></use><use xlink:href="#SvgjsG5405" transform="translate(180, 60)" fill="#0f457b"></use><use xlink:href="#SvgjsG5405" transform="translate(180, 90)" fill="#0f457b"></use><use xlink:href="#SvgjsG5398" transform="translate(180, 120)" fill="#0f457b"></use><use xlink:href="#SvgjsG5400" transform="translate(180, 150)" fill="#0f457b"></use><use xlink:href="#SvgjsG5391" transform="translate(180, 180)" fill="#0f457b"></use><use xlink:href="#SvgjsG5392" transform="translate(180, 210)" fill="#0f457b"></use><use xlink:href="#SvgjsG5397" transform="translate(180, 240)" fill="#0f457b"></use><use xlink:href="#SvgjsG5393" transform="translate(180, 270)" fill="#0f457b"></use><use xlink:href="#SvgjsG5402" transform="translate(210, 0)" fill="#0f457b"></use><use xlink:href="#SvgjsG5405" transform="translate(210, 30)" fill="#0f457b"></use><use xlink:href="#SvgjsG5398" transform="translate(210, 60)" fill="#0f457b"></use><use xlink:href="#SvgjsG5400" transform="translate(210, 90)" fill="#0f457b"></use><use xlink:href="#SvgjsG5399" transform="translate(210, 120)" fill="#0f457b"></use><use xlink:href="#SvgjsG5391" transform="translate(210, 150)" fill="#0f457b"></use><use xlink:href="#SvgjsG5393" transform="translate(210, 180)" fill="#0f457b"></use><use xlink:href="#SvgjsG5401" transform="translate(210, 210)" fill="#0f457b"></use><use xlink:href="#SvgjsG5398" transform="translate(210, 240)" fill="#0f457b"></use><use xlink:href="#SvgjsG5396" transform="translate(210, 270)" fill="#0f457b"></use><use xlink:href="#SvgjsG5399" transform="translate(240, 0)" fill="#0f457b"></use><use xlink:href="#SvgjsG5396" transform="translate(240, 30)" fill="#0f457b"></use><use xlink:href="#SvgjsG5396" transform="translate(240, 60)" fill="#0f457b"></use><use xlink:href="#SvgjsG5401" transform="translate(240, 90)" fill="#0f457b"></use><use xlink:href="#SvgjsG5391" transform="translate(240, 120)" fill="#0f457b"></use><use xlink:href="#SvgjsG5392" transform="translate(240, 150)" fill="#0f457b"></use><use xlink:href="#SvgjsG5393" transform="translate(240, 180)" fill="#0f457b"></use><use xlink:href="#SvgjsG5391" transform="translate(240, 210)" fill="#0f457b"></use><use xlink:href="#SvgjsG5391" transform="translate(240, 240)" fill="#0f457b"></use><use xlink:href="#SvgjsG5405" transform="translate(240, 270)" fill="#0f457b"></use><use xlink:href="#SvgjsG5392" transform="translate(270, 0)" fill="#0f457b"></use><use xlink:href="#SvgjsG5403" transform="translate(270, 30)" fill="#0f457b"></use><use xlink:href="#SvgjsG5391" transform="translate(270, 60)" fill="#0f457b"></use><use xlink:href="#SvgjsG5399" transform="translate(270, 90)" fill="#0f457b"></use><use xlink:href="#SvgjsG5400" transform="translate(270, 120)" fill="#0f457b"></use><use xlink:href="#SvgjsG5403" transform="translate(270, 150)" fill="#0f457b"></use><use xlink:href="#SvgjsG5394" transform="translate(270, 180)" fill="#0f457b"></use><use xlink:href="#SvgjsG5402" transform="translate(270, 210)" fill="#0f457b"></use><use xlink:href="#SvgjsG5397" transform="translate(270, 240)" fill="#0f457b"></use><use xlink:href="#SvgjsG5404" transform="translate(270, 270)" fill="#0f457b"></use></g></defs></svg>